<svg width="29" height="28" viewBox="0 0 29 28" fill="none" xmlns="http://www.w3.org/2000/svg">
<path fill-rule="evenodd" clip-rule="evenodd" d="M11.7846 4.99998L11.9554 5.00003H17.0446L17.2153 4.99998C18.4856 4.99946 19.3632 4.9991 20.1582 5.2733C20.8588 5.51496 21.497 5.90936 22.0264 6.42794C22.6272 7.01636 23.0194 7.80147 23.587 8.93791L23.6633 9.09065L24.618 11H26C26.5523 11 27 11.4477 27 12V12.3537C27 13.2865 26.3299 14.0148 25.5 14.1799V18L25.5 20.2L25.5 20.2232L25.5 20.2722V22.28L25.5 22.3017C25.5001 22.4079 25.5001 22.5399 25.4906 22.657C25.4794 22.7939 25.4503 22.9957 25.342 23.2083C25.203 23.4812 24.9811 23.703 24.7083 23.842C24.4957 23.9503 24.2939 23.9794 24.157 23.9906C24.0399 24.0001 23.9079 24.0001 23.8017 24L23.78 24H23.22L23.1983 24C23.0921 24.0001 22.9601 24.0001 22.843 23.9906C22.7061 23.9794 22.5043 23.9503 22.2917 23.842C22.0189 23.703 21.7971 23.4812 21.6581 23.2083C21.5497 22.9957 21.5206 22.7939 21.5095 22.657C21.4999 22.5399 21.5 22.4079 21.5 22.3017L21.5 22.28V22H7.50001V22.28L7.50002 22.3017C7.50007 22.4079 7.50013 22.5399 7.49056 22.657C7.47938 22.7939 7.4503 22.9957 7.34197 23.2083C7.20296 23.4812 6.98113 23.703 6.7083 23.842C6.4957 23.9503 6.29388 23.9794 6.157 23.9906C6.03992 24.0001 5.90791 24.0001 5.80172 24L5.78001 24H5.22001L5.19831 24C5.09212 24.0001 4.96011 24.0001 4.84302 23.9906C4.70614 23.9794 4.50433 23.9503 4.29173 23.842C4.01889 23.703 3.79707 23.4812 3.65805 23.2083C3.54973 22.9957 3.52065 22.7939 3.50947 22.657C3.4999 22.5399 3.49996 22.4079 3.50001 22.3017L3.50001 22.28V20.3485L3.50001 20.3017L3.50001 20.28V18.7841L3.49997 18.6361L3.49997 14.1799C2.67006 14.0148 2 13.2865 2 12.3537V12C2 11.4477 2.44772 11 3 11H4.38194L5.33663 9.09065L5.41295 8.9379C5.98059 7.80146 6.37274 7.01635 6.97351 6.42794C7.50299 5.90936 8.14113 5.51496 8.84175 5.2733C9.63672 4.9991 10.5143 4.99946 11.7846 4.99998ZM5.51709 19.5038C5.50243 19.3244 5.5003 19.0907 5.50001 18.7292V17L5.49997 14.0206C5.57134 14.0338 5.65944 14.0491 5.7659 14.0659C6.08739 14.1167 6.5782 14.1817 7.28446 14.2459C8.69625 14.3743 10.9773 14.5 14.5 14.5C18.0227 14.5 20.3037 14.3743 21.7155 14.2459C22.4218 14.1817 22.9126 14.1167 23.2341 14.0659C23.3405 14.0491 23.4286 14.0338 23.5 14.0206V18.6C23.5 19.0366 23.4992 19.3038 23.4829 19.5038C23.4752 19.5969 23.4657 19.6533 23.4576 19.6875C23.4538 19.7038 23.4506 19.7138 23.4486 19.7192C23.4468 19.7244 23.4455 19.727 23.4455 19.727C23.3975 19.8211 23.321 19.8976 23.227 19.9455C23.227 19.9455 23.2254 19.9464 23.2225 19.9475L23.2192 19.9487C23.2138 19.9506 23.2038 19.9538 23.1875 19.9577C23.1532 19.9657 23.0969 19.9753 23.0037 19.9829C22.8038 19.9993 22.5365 20 22.1 20H6.89997C6.46343 20 6.19617 19.9993 5.99621 19.9829C5.90306 19.9753 5.8467 19.9657 5.81247 19.9577C5.79619 19.9538 5.78618 19.9506 5.78076 19.9487C5.77556 19.9468 5.77298 19.9455 5.77298 19.9455C5.6789 19.8976 5.60241 19.8211 5.55447 19.727C5.55447 19.727 5.55315 19.7244 5.5513 19.7192C5.54937 19.7138 5.54615 19.7038 5.54232 19.6875C5.53426 19.6533 5.5247 19.5969 5.51709 19.5038ZM22.9268 12.0897L21.8745 9.98508C21.1999 8.63599 20.9577 8.18063 20.627 7.85678C20.3093 7.54563 19.9264 7.30899 19.5061 7.16399C19.0685 7.01308 18.5529 7.00003 17.0446 7.00003H11.9554C10.4471 7.00003 9.93143 7.01308 9.4939 7.16399C9.07352 7.30899 8.69064 7.54563 8.37295 7.85678C8.04229 8.18063 7.80003 8.63599 7.12548 9.98508L6.0732 12.0897L6.07783 12.0904C6.35009 12.1334 6.79679 12.1933 7.46553 12.2541C8.80373 12.3758 11.0227 12.5 14.5 12.5C17.9773 12.5 20.1963 12.3758 21.5345 12.2541C22.2032 12.1933 22.6499 12.1334 22.9222 12.0904L22.9268 12.0897ZM20.624 17.9923C21.172 17.9238 21.5608 17.424 21.4923 16.876C21.4238 16.328 20.924 15.9392 20.3759 16.0077L18.3759 16.2577C17.8279 16.3262 17.4392 16.826 17.5077 17.374C17.5762 17.9221 18.076 18.3108 18.624 18.2423L20.624 17.9923ZM7.50774 16.876C7.43924 17.424 7.82796 17.9238 8.37598 17.9923L10.376 18.2423C10.924 18.3108 11.4238 17.9221 11.4923 17.374C11.5608 16.826 11.1721 16.3262 10.6241 16.2577L8.62405 16.0077C8.07603 15.9392 7.57624 16.328 7.50774 16.876Z" fill="#4BB34B"/>
</svg>
