<svg width="29" height="28" viewBox="0 0 29 28" fill="none" xmlns="http://www.w3.org/2000/svg">
<path d="M14.5 2C21.1274 2 26.5 7.37258 26.5 14C26.5 20.6274 21.1274 26 14.5 26C7.87258 26 2.5 20.6274 2.5 14C2.5 7.37258 7.87258 2 14.5 2ZM14.5 4C8.97715 4 4.5 8.47715 4.5 14C4.5 19.5228 8.97715 24 14.5 24C20.0228 24 24.5 19.5228 24.5 14C24.5 8.47715 20.0228 4 14.5 4ZM14.5736 12C14.8112 12 14.9604 12.0371 15.0907 12.1069C15.2211 12.1766 15.3234 12.2789 15.3931 12.4093C15.4629 12.5396 15.5 12.6888 15.5 12.9264V19.0736C15.5 19.3112 15.4629 19.4604 15.3931 19.5907C15.3234 19.7211 15.2211 19.8234 15.0907 19.8931C14.9604 19.9629 14.8112 20 14.5736 20H14.4264C14.1888 20 14.0396 19.9629 13.9093 19.8931C13.7789 19.8234 13.6766 19.7211 13.6069 19.5907C13.5371 19.4604 13.5 19.3112 13.5 19.0736V12.9264C13.5 12.6888 13.5371 12.5396 13.6069 12.4093C13.6766 12.2789 13.7789 12.1766 13.9093 12.1069C14.0396 12.0371 14.1888 12 14.4264 12H14.5736ZM14.5 7.6C15.2732 7.6 15.9 8.2268 15.9 9C15.9 9.7732 15.2732 10.4 14.5 10.4C13.7268 10.4 13.1 9.7732 13.1 9C13.1 8.2268 13.7268 7.6 14.5 7.6Z" fill="#4BB34B"/>
</svg>
