<svg width="28" height="28" viewBox="0 0 28 28" fill="none" xmlns="http://www.w3.org/2000/svg">
<path d="M8.09219 16.5015L9.64981 10.1797H10.4931L10.5468 11.5117L8.88174 18H7.99014L8.09219 16.5015ZM7.10928 10.1797L8.3876 16.48V18H7.41543L5.64297 10.1797H7.10928ZM12.1635 16.4531L13.4203 10.1797H14.892L13.1195 18H12.1474L12.1635 16.4531ZM10.8959 10.1797L12.4535 16.5229L12.5448 18H11.6532L9.99356 11.5063L10.058 10.1797H10.8959ZM20.7027 15.4272H22.1798C22.1404 15.95 21.9954 16.4137 21.7447 16.8184C21.4941 17.2194 21.145 17.5345 20.6974 17.7637C20.2498 17.9928 19.7073 18.1074 19.0699 18.1074C18.5794 18.1074 18.1371 18.0215 17.7433 17.8496C17.353 17.6742 17.0182 17.4253 16.7389 17.103C16.4632 16.7772 16.2519 16.3869 16.1051 15.9321C15.9583 15.4738 15.8849 14.96 15.8849 14.3906V13.7944C15.8849 13.2251 15.9601 12.7113 16.1104 12.2529C16.2608 11.7946 16.4757 11.4043 16.755 11.082C17.0379 10.7562 17.3762 10.5055 17.7701 10.3301C18.1676 10.1546 18.6116 10.0669 19.1021 10.0669C19.7395 10.0669 20.2784 10.1851 20.7188 10.4214C21.1593 10.6541 21.5012 10.9746 21.7447 11.3828C21.9882 11.791 22.135 12.2601 22.1852 12.79H20.7081C20.6795 12.4606 20.6078 12.1813 20.4933 11.9521C20.3823 11.723 20.214 11.5493 19.9884 11.4312C19.7664 11.3094 19.471 11.2485 19.1021 11.2485C18.8157 11.2485 18.5632 11.3022 18.3448 11.4097C18.13 11.5171 17.9509 11.6782 17.8077 11.8931C17.6645 12.1043 17.5571 12.3693 17.4854 12.688C17.4138 13.0031 17.378 13.3683 17.378 13.7837V14.3906C17.378 14.7881 17.4103 15.1444 17.4747 15.4595C17.5392 15.7746 17.6394 16.0413 17.7755 16.2598C17.9116 16.4782 18.087 16.6447 18.3019 16.7593C18.5167 16.8739 18.7727 16.9312 19.0699 16.9312C19.4316 16.9312 19.7252 16.8739 19.9508 16.7593C20.1799 16.6447 20.3536 16.4764 20.4718 16.2544C20.5935 16.0324 20.6705 15.7567 20.7027 15.4272Z" fill="#4BB34B"/>
<path d="M14 26C7.37258 26 2 20.6274 2 14C2 7.37258 7.37258 2 14 2C20.6274 2 26 7.37258 26 14C26 20.6274 20.6274 26 14 26ZM14 24C19.5228 24 24 19.5228 24 14C24 8.47715 19.5228 4 14 4C8.47715 4 4 8.47715 4 14C4 19.5228 8.47715 24 14 24Z" fill="#4BB34B"/>
</svg>
